<?xml version="1.0" encoding="utf-8"?>
<!-- Generator: Adobe Illustrator 21.0.0, SVG Export Plug-In . SVG Version: 6.00 Build 0)  -->
<svg version="1.1" id="Layer_1" xmlns="http://www.w3.org/2000/svg" xmlns:xlink="http://www.w3.org/1999/xlink" x="0px" y="0px"
	 viewBox="0 0 210.1 250.5" style="enable-background:new 0 0 210.1 250.5;" xml:space="preserve">
<style type="text/css">
	.st0{fill:#00BFF2;}
	.st1{fill:#8CC53F;}
	.st2{fill:#333333;}
	.st3{fill:#63B0C5;}
	.st4{fill:#61B2C7;}
	.st5{fill:#90B361;}
	.st6{fill:#90B75C;}
	.st7{fill:#94BB5E;}
	.st8{fill:#91B264;}
	.st9{fill:#90B65E;}
	.st10{fill:#6CB2C5;}
</style>
<g>
	<path class="st0" d="M32.5,183.4c3-8.9,7.1-17.3,12.6-25c3.1-4.3,7.8-6.6,12.3-9.1c2.9-1.6,5.9-3,8.8-4.7c2.1-1.2,4.5-2.4,5.8-4.3
		c4.6-6.7,9.2-13.4,14.6-19.4c1.6-1.8,1-4.3,0.4-6.6c-1.1-4.3-2.5-8.5-4.8-12.2c-4-6.4-4.1-13.2-2.7-20.1c2.9-14.5,6-29,9.5-43.4
		C91.9,27.4,95.3,25,107,24.6c5.7-0.2,11.5,0,17.3-0.1c4.3-0.1,7.5-1.5,10.3-5.3c6.4-8.8,15.3-14.7,25.6-18c9.3-3,18.1,0,23.6,8
		c6.2,8.8,9.9,18.7,10.4,29.5c0.1,2.8-0.3,5.2-2.4,7.5c-5.1,5.8-4.5,16.3,1.4,21.3c4.7,4.1,9.1,8.4,13,13.3
		c5.2,6.4,5.2,8.7,0.2,14.9c-3.7,4.6-7.3,9.3-10.2,14.4c-2.7,4.7-3,9.3-0.5,14.2c2.2,4.6,4.1,9.4,5.9,14.2c1.8,4.9,1.3,9.6-1.1,14.4
		c-8.3,16.9-14.1,34.7-17.9,53.2c-0.6,0.7-1.3,0.7-2,0.5c-9.4-3.3-19-5.5-28.6-8.2c-0.9-0.2-1.7-0.7-2.1-1.6
		c-0.8-3.4,1.4-5.8,3.2-8.1c7.7-10.1,15.7-20,23.2-30.3c2.7-3.7,5.3-7.4,7-11.6c1.8-4.5,1.2-7.2-2.9-9.7c-3.1-1.9-5.8-4.4-8.4-6.9
		c-5.9-5.6-13.2-9.1-20.7-12.1c-2.2-0.9-4.5-1.6-4.4-4.5c0-2.7,1.1-4.8,4.2-4.9c5.7-0.3,10.5-2.6,15.2-5.6c6.5-4.1,12.5-9.1,20.3-11
		c2-0.5,3.4-1.9,4-4c0.7-2.3,0.1-4.2-2-5.5c-1.9-1.2-3.7-0.9-5.3,0.7c-1.4,1.4-2.7,2.8-4.1,4.3c-4.8,5.5-11.2,8.2-17.9,10.2
		c-3.3,1-4.6-0.4-3.9-3.8c0.4-1.9,1-3.9,2-5.5c6.3-10.5,3.2-20.5-1.5-30.3c-2.8-5.8-7.6-10.1-12.4-14.4c-2.1-1.9-4.7-2.7-7.4-3.2
		c-8.7-1.3-17.2-3.3-26-3.9c-7.2-0.5-10.4,1.6-12.3,8.5c-1.4,5.1-1.6,10.5-2.3,15.7c-0.7,2-0.5,4.1-0.5,6.2c0,6.3-2.4,11.8-6.5,16.5
		c-2.2,2.5-3.5,5.3-2.3,8.7c1,2.7,2.8,3.8,5.7,2.8c4.4-1.5,5.9-3.7,6.2-8.4c0.4-6.2,0.6-12.4,2-18.4c1.6-6.6,5.6-12.3,9-18.1
		c1.1-1.8,3-1.9,4.9-1c4.3,2,8.6,3.6,13.3,4.4c2.1,0.4,3.7,1.6,3,4.1c-0.9,3.4-0.5,6.9-1.1,10.3c-0.8,2.3-0.5,4.6-0.5,6.9
		c-0.7,7.3-2.6,14.3-4.7,21.2c-1.2,4-3.9,7.2-7,9.9c-6.3,5.5-10,12.4-12,20.4c-1,4.1-2.8,7.7-6.1,10.4c-4.7,3.7-7.6,8.6-9.7,14
		c-1.6,4.1-4,7.3-8,9.5c-9.8,5.4-17.6,13.3-25.7,20.8c-2.5,2.3-5.1,4.2-8.7,4.4C43.5,184.3,37.9,184.6,32.5,183.4z"/>
	<path class="st1" d="M32.5,183.4c5.8-1.5,11.4,0.1,17,1.3c0.9,2.7-1.2,3.4-2.9,4.2c-4.8,2.3-9.8,4.1-15.1,4c-4.9,0-8.1,1.7-9.3,6.5
		c-1.4,5.4-0.4,10.8-0.6,16.2c-0.2,3.8,0,7.5,0,11.3c0,2,0,4,1.5,5.7c2.2,2,3.9,0.7,5.3-1.1c2-2.4,2.8-5.3,3.6-8.2
		c1.8-6.1,3.5-12.2,7.4-17.4c1.8-1.5,3.5-3,4.8-4.9c5.1-4.6,10.9-8.1,17-11.1c1.8-0.6,3.5-1.7,5.5-1.8c1.8,0,3.6,0.4,5.4,0.9
		c11.8,3.4,23.7,1.9,35.6,0.9c8.5-0.7,16.9-0.9,24.9,2.6c1.7,1.8,0.1,3-0.9,4.3c-1.3,1.2-1.3,2.4-0.2,3.7
		c5.1,8.5,10.7,16.5,18.2,23.1c2.3,2.1,5.1,5.5,8,3.5c3-2.2,0-5.8-1-8.6c-0.6-1.5-1.6-2.9-2-4.6c-0.9-3.4-2.6-6.4-4.7-9.2
		c-0.7-2.8-3.4-5.5,0.1-8.2c10.7,3.5,21.9,5.7,32.5,9.7c7.9,4.9,10.2,12.8,11.1,21.2c0.4,3.7-1.5,7-5.4,7.9
		c-7,1.6-12.8,5.4-18.5,9.4c-8.4,5.9-17.1,7.2-27,4c-16.9-5.3-34-9.9-51.5-12.7c-3.3-0.5-6.3-0.3-9.3,1c-4.9,2.1-9.9,3.9-14.5,6.4
		c-15.3,8.2-31.1,8.9-47.4,3.4c-5.7-1.9-11.4-3.9-16.8-6.8c-2.7-1.4-3.8-3-2.9-6.5c1.9-7.3,1.5-14.8,0.2-22.1
		c-1.4-8,0.5-13.2,8.2-17C16.6,190.7,24.1,186.2,32.5,183.4z"/>
	<path class="st2" d="M150.1,196.5c-1.5,2.9,0.1,5.5,0.9,8.1c1.5,3.1,3.1,6.3,4.6,9.4c1.5,3.4,3.7,6.5,4.2,10.3
		c0.2,1.6,0.2,3.1-0.9,4.2c-1.4,1.3-3.1,0.8-4.6,0.1c-5.7-2.8-9.6-7.6-13.6-12.3c-4-4.7-7.3-9.9-10.2-15.3c-1.1-1.5-1.1-3,0-4.5
		c0.8-0.9,1.6-1.7,2.4-2.6c0.7-2.5,2.9-3.4,4.7-4.7c6.5-4.4,10.9-10.4,13.9-17.5c3.1-7.4,4.4-15.5,8.8-22.3c1.1-1.7-0.3-2.3-1.6-3
		c-3.5-1.9-7.4-1.2-11.1-1.8c-1.5-0.5-3-0.5-4.5-0.5c-3.6-0.2-7.2-1-10.7-2.1c-2.3-0.8-4-0.2-5.6,1.6c-8.2,8.9-16.7,17.7-27.6,23.5
		c-0.5,0.3-1,0.7-1.4,1.1c-8.5,10.1-21.3,13.3-31.8,20.4c-1.8,0.5-3.4,1.7-5.2,2.4c-5.5,3.5-11.2,6.6-16.2,10.8
		c-1.7,1.5-3.2,3.2-4.8,4.8c-3.4,5.8-5.4,12.1-7.1,18.4c-0.9,3.4-2.3,6.5-4.8,9c-2,2-3.8,2.3-5.6-0.2c-1.2-1.9-1.6-4-1.7-6.1
		c0-8.3,0-16.6,0-24.9c0-1.4-0.6-3,0.6-4.3c0.8-4.9,3.7-6.6,8.5-6.5c6,0.1,11.6-1.7,16.9-4.2c1.2-0.6,2.6-1,2.6-2.7
		c6.4-1.4,9.8-6.8,14.2-10.8c6.3-5.9,13.2-10.9,20.3-15.5c2.9-1.9,4.7-4.2,5.9-7.1c2.3-5.9,5.4-11.3,10.3-15.5
		c3.2-2.6,4.8-6,5.8-9.9c1.9-7.7,5.4-14.7,11.4-20c5.3-4.6,8.2-10.3,9.5-17.1c0.8-4.4,2.4-8.7,2.7-13.3c1-2.4-0.2-5,0.7-7.4
		c0.3-3.6-0.2-7.3,1-10.8c0.7-1.8-0.2-2.5-1.9-2.6c-5.2-0.6-10-2.2-14.6-4.8c-2.8-1.6-2.9,1-3.8,2.3c-7.4,10.7-9.8,22.8-9.8,35.6
		c0,4.5-5.4,9.6-10,9.3c-3.4-0.2-6.1-6.2-4.4-10.3c0.7-1.6,1.8-3.2,3.1-4.4c4.1-4.3,5.9-9.4,5.9-15.2c1-2.1-0.1-4.3,0.7-6.4
		c0.5-6.3,1-12.7,2.8-18.8c1-3.5,3.1-5.6,7-6c7.3-0.8,14.5,0.3,21.6,1.6c3,0.5,5.9,1.3,8.9,1.5c3,0.2,6.1,1.1,8.5,3
		c11.3,8.8,18.3,20,18.8,34.7c0.1,3.6-0.6,6.9-2.7,9.9c-2.1,3-2.8,6.6-3.7,10.6c9.7-2,17.8-6,23.6-13.8c1.8-2.4,3.6-4,6.8-2.8
		c2.5,1,3.8,2.7,4,5.5c0.2,3.4-1.5,5.8-4.5,6.6c-8.6,2.3-15.3,7.8-22.6,12.3c-4.3,2.7-9,5.2-14.4,4.5c-2.4-0.3-2.4,1.4-2.9,2.6
		c-0.6,1.7-0.5,3.5,1.6,4c13.4,3.2,22.7,12.9,33.2,20.7c2.7,2,3.7,4.6,2.6,8c-2.1,6.5-6.3,11.7-10.2,17
		c-6.9,9.4-14.2,18.5-21.3,27.7C152.1,191.8,150.6,193.8,150.1,196.5z"/>
	<path class="st2" d="M159.7,45.4c-8.5-0.1-15.5-7-15.5-15.5c-0.1-8.7,7.1-15.7,15.9-15.7c8.6,0.1,15.5,7,15.6,15.5
		C175.7,38.4,168.4,45.5,159.7,45.4z"/>
	<path class="st3" d="M130.2,68.2c0,2.5,0.7,5-0.7,7.4C129.6,73.1,128.7,70.5,130.2,68.2z"/>
	<path class="st4" d="M96.5,60.9c0.1,2.2,0.4,4.4-0.7,6.4C95.9,65.2,95.1,62.9,96.5,60.9z"/>
	<path class="st0" d="M65.6,188.1c7.5-5,15.1-9.8,23.3-13.5c1.2-0.5,2.8-1,3.5-2c4-6.3,10.8-8.9,16.3-13.2
		c6.6-5.1,12.2-11.2,17.8-17.3c1.7-1.8,3.1-2.2,5.5-1.5c3.6,1.1,7.3,1.6,11,2.4c1.5,0.8,3.2-0.1,4.7,0.7c4.7-0.1,9.3,0.2,13.6,2.5
		c1.5,0.8,2.3,1.3,1,2.9c-3.5,4.3-5.3,9.5-6.7,14.7c-3.5,13.2-10.7,23.5-22.7,30.2c-7.5-3-15.3-3.5-23.1-2.7
		c-14.8,1.5-29.5,2.3-44-2.1C65.3,188.9,65.2,188.5,65.6,188.1z"/>
	<path class="st5" d="M21.4,198.2c-0.1,10-0.2,20-0.3,30c-0.2,0.4-0.5,0.4-0.7,0c0-8.6,0-17.2,0-25.8
		C20.3,200.9,19.7,199.3,21.4,198.2z"/>
	<path class="st6" d="M155.7,214c-2.2-2.8-3.8-5.9-4.6-9.4C153.5,207.3,155,210.4,155.7,214z"/>
	<path class="st7" d="M40,206.3c0.9-2.3,2.6-3.8,4.8-4.8C43.8,203.8,42.2,205.4,40,206.3z"/>
	<path class="st8" d="M65.6,188.1c0.1,0.3,0.2,0.7,0.3,1c-1.6,0.6-3,2-4.9,1.7C62.3,189.4,63.8,188.6,65.6,188.1z"/>
	<path class="st6" d="M20.3,228.2c0.2,0,0.5,0,0.7,0c0.5,1.8,0.9,3.6,1.4,5.4C20.5,232.3,20.4,230.2,20.3,228.2z"/>
	<path class="st9" d="M130.6,196.4c0,1.5,0,3,0,4.5C128.8,199.4,128.8,197.9,130.6,196.4z"/>
	<path class="st10" d="M147.7,143.5c-1.6,0-3.3,0.7-4.7-0.7C144.6,142.8,146.3,142.5,147.7,143.5z"/>
</g>
</svg>
